<svg width="12" height="12" viewBox="0 0 12 12" fill="none" xmlns="http://www.w3.org/2000/svg">
<path d="M2 3.21429H2.64286V3.85715H2V3.21429ZM2.64286 3.21429H3.28571V3.85715H2.64286V3.21429ZM2.64286 3.85715H3.28571V4.50001H2.64286V3.85715ZM2 3.85715H2.64286V4.50001H2V3.85715ZM3.28571 3.85715H3.92857V4.50001H3.28571V3.85715ZM3.92857 3.85715H4.57143V4.50001H3.92857V3.85715ZM3.28571 4.50001H3.92857V5.14287H3.28571V4.50001ZM3.92857 4.50001H4.57143V5.14287H3.92857V4.50001ZM4.57143 4.50001H5.21429V5.14287H4.57143V4.50001ZM5.21429 4.50001H5.85714V5.14287H5.21429V4.50001ZM5.21429 5.14287H5.85714V5.78572H5.21429V5.14287ZM4.57143 5.14287H5.21429V5.78572H4.57143V5.14287ZM5.85714 5.14287H6.5V5.78572H5.85714V5.14287ZM6.5 5.14287H7.14286V5.78572H6.5V5.14287ZM6.5 5.78572H7.14286V6.42858H6.5V5.78572ZM5.85714 5.78572H6.5V6.42858H5.85714V5.78572ZM5.85714 6.42858H6.5V7.07144H5.85714V6.42858ZM6.5 6.42858H7.14286V7.07144H6.5V6.42858ZM5.21429 6.42858H5.85714V7.07144H5.21429V6.42858ZM5.21429 5.78572H5.85714V6.42858H5.21429V5.78572ZM5.21429 7.07144H5.85714V7.71429H5.21429V7.07144ZM4.57143 7.07144H5.21429V7.71429H4.57143V7.07144ZM4.57143 6.42858H5.21429V7.07144H4.57143V6.42858ZM3.92857 7.07144H4.57143V7.71429H3.92857V7.07144ZM3.92857 7.71429H4.57143V8.35715H3.92857V7.71429ZM3.28571 7.71429H3.92857V8.35715H3.28571V7.71429ZM3.28571 7.07144H3.92857V7.71429H3.28571V7.07144ZM2.64286 7.71429H3.28571V8.35715H2.64286V7.71429ZM2 7.71429H2.64286V8.35715H2V7.71429ZM2 8.35715H2.64286V9.00001H2V8.35715ZM2.64286 8.35715H3.28571V9.00001H2.64286V8.35715ZM3.28571 8.35715H3.92857V9.00001H3.28571V8.35715ZM4.57143 7.71429H5.21429V8.35715H4.57143V7.71429ZM5.85714 7.07144H6.5V7.71429H5.85714V7.07144ZM3.28571 3.21429H3.92857V3.85715H3.28571V3.21429ZM4.57143 3.85715H5.21429V4.50001H4.57143V3.85715ZM5.85714 4.50001H6.5V5.14287H5.85714V4.50001Z" fill="#080807"/>
<path d="M8 7.71427H8.64286V8.35713H8V7.71427ZM8.64286 7.71427H9.28571V8.35713H8.64286V7.71427ZM8.64286 8.35713H9.28571V8.99998H8.64286V8.35713ZM8 8.35713H8.64286V8.99998H8V8.35713ZM8 2.57141H8.64286V3.21427H8V2.57141ZM8.64286 2.57141H9.28571V3.21427H8.64286V2.57141ZM8.64286 3.21427H9.28571V3.85713H8.64286V3.21427ZM8.64286 3.85713H9.28571V4.49998H8.64286V3.85713ZM8.64286 4.49998H9.28571V5.14284H8.64286V4.49998ZM8.64286 5.14284H9.28571V5.7857H8.64286V5.14284ZM8.64286 5.7857H9.28571V6.42855H8.64286V5.7857ZM8 5.7857H8.64286V6.42855H8V5.7857ZM8 5.14284H8.64286V5.7857H8V5.14284ZM8 4.49998H8.64286V5.14284H8V4.49998ZM8 3.85713H8.64286V4.49998H8V3.85713ZM8 3.21427H8.64286V3.85713H8V3.21427ZM8 6.42855H8.64286V7.07141H8V6.42855ZM8.64286 6.42855H9.28571V7.07141H8.64286V6.42855Z" fill="#080807"/>
</svg>
